<?xml version="1.0" encoding="UTF-8" standalone="no"?>
<svg
   xmlns:dc="http://purl.org/dc/elements/1.1/"
   xmlns:cc="http://creativecommons.org/ns#"
   xmlns:rdf="http://www.w3.org/1999/02/22-rdf-syntax-ns#"
   xmlns:svg="http://www.w3.org/2000/svg"
   xmlns="http://www.w3.org/2000/svg"
   xmlns:sodipodi="http://sodipodi.sourceforge.net/DTD/sodipodi-0.dtd"
   xmlns:inkscape="http://www.inkscape.org/namespaces/inkscape"
   width="210mm"
   height="297mm"
   viewBox="0 0 210 297"
   version="1.1"
   id="svg8"
   inkscape:version="1.0.1 (c497b03c, 2020-09-10)"
   sodipodi:docname="AndrewLeichterLogo.svg">
  <defs
     id="defs2" />
  <sodipodi:namedview
     id="base"
     pagecolor="#a7ffff"
     bordercolor="#666666"
     borderopacity="1.0"
     inkscape:pageopacity="0"
     inkscape:pageshadow="2"
     inkscape:zoom="4.9793384"
     inkscape:cx="140.28896"
     inkscape:cy="312.84615"
     inkscape:document-units="mm"
     inkscape:current-layer="g974"
     inkscape:document-rotation="0"
     showgrid="false"
     showguides="true"
     inkscape:guide-bbox="true"
     inkscape:window-width="1920"
     inkscape:window-height="1080"
     inkscape:window-x="0"
     inkscape:window-y="0"
     inkscape:window-maximized="0" />
  <metadata
     id="metadata5">
    <rdf:RDF>
      <cc:Work
         rdf:about="">
        <dc:format>image/svg+xml</dc:format>
        <dc:type
           rdf:resource="http://purl.org/dc/dcmitype/StillImage" />
        <dc:title></dc:title>
      </cc:Work>
    </rdf:RDF>
  </metadata>
  <g
     inkscape:label="Layer 1"
     inkscape:groupmode="layer"
     id="layer1">
    <g
       id="g974"
       inkscape:export-xdpi="169.33"
       inkscape:export-ydpi="169.33">
      <path
         id="rect845-12-2-5-0-9-6-3-5-2-5-2-5-0-1-3"
         style="fill:#0082ff;fill-opacity:1;stroke:none;stroke-width:1.51181;stroke-opacity:1"
         d="m 150.05469,245.08984 a 2.751234,2.751234 0 0 0 -2.75196,2.75 2.751234,2.751234 0 0 0 1.55469,2.47657 v 12.4082 a 24.49792,24.49792 0 0 1 2.39258,-0.13867 v -12.26758 a 2.751234,2.751234 0 0 0 1.55469,-2.47852 2.751234,2.751234 0 0 0 -2.75,-2.75 z m 11.98437,2.99219 a 2.751234,2.751234 0 0 0 -2.75195,2.75195 2.751234,2.751234 0 0 0 1.55664,2.47852 v 11.14453 a 24.49792,24.49792 0 0 1 2.39063,1.14649 v -12.29297 a 2.751234,2.751234 0 0 0 1.55664,-2.47657 2.751234,2.751234 0 0 0 -2.75196,-2.75195 z m -21.67578,0.15039 a 2.751234,2.751234 0 0 0 -2.75195,2.75 2.751234,2.751234 0 0 0 1.55469,2.47656 v 12.4336 a 24.49792,24.49792 0 0 1 2.39257,-1.21875 v -11.21289 a 2.751234,2.751234 0 0 0 1.55469,-2.47852 2.751234,2.751234 0 0 0 -2.75,-2.75 z M 120.16211,256.5 a 2.751234,2.751234 0 0 0 -2.75,2.75195 2.751234,2.751234 0 0 0 1.55469,2.47657 v 14.86718 c 0,0.66269 0.53262,1.19727 1.19531,1.19727 h 8.62695 a 24.49792,24.49792 0 0 1 1.13477,-2.39258 h -8.56445 v -13.67187 a 2.751234,2.751234 0 0 0 1.55468,-2.47657 2.751234,2.751234 0 0 0 -2.75195,-2.75195 z m 51.29101,2.80469 a 2.751234,2.751234 0 0 0 -2.75195,2.75195 2.751234,2.751234 0 0 0 1.55469,2.47656 v 6.84571 a 24.49792,24.49792 0 0 1 2.39258,3.41797 V 264.5332 a 2.751234,2.751234 0 0 0 1.55468,-2.47656 2.751234,2.751234 0 0 0 -2.75,-2.75195 z m 9.72657,0.15039 a 2.751234,2.751234 0 0 0 -2.75196,2.75 2.751234,2.751234 0 0 0 1.55469,2.47656 v 13.67188 h -5.63672 a 24.49792,24.49792 0 0 1 0.77344,2.39257 h 6.06055 c 0.16567,0 0.32164,-0.0334 0.46484,-0.0937 0.42962,-0.18111 0.73047,-0.60454 0.73047,-1.10156 v -14.86719 a 2.751234,2.751234 0 0 0 1.55469,-2.47851 2.751234,2.751234 0 0 0 -2.75,-2.75 z m -48.45899,0.29883 a 2.751234,2.751234 0 0 0 -2.75,2.75195 2.751234,2.751234 0 0 0 1.55469,2.47656 v 7.85742 a 24.49792,24.49792 0 0 1 2.39258,-2.85937 v -4.99805 a 2.751234,2.751234 0 0 0 1.55469,-2.47656 2.751234,2.751234 0 0 0 -2.75196,-2.75195 z m -20.7539,4.48828 a 2.751234,2.751234 0 0 0 -2.75196,2.75195 2.751234,2.751234 0 0 0 1.55469,2.47852 v 14.86718 c 0,0.66269 0.53458,1.19532 1.19727,1.19532 h 15.03906 a 24.49792,24.49792 0 0 1 0.27148,-2.39258 H 113.16211 V 269.4707 a 2.751234,2.751234 0 0 0 1.55469,-2.47656 2.751234,2.751234 0 0 0 -2.75,-2.75195 z m 76.0957,0.30078 a 2.751234,2.751234 0 0 0 -2.75195,2.75 2.751234,2.751234 0 0 0 1.55664,2.47851 v 13.66993 h -11.1875 a 24.49792,24.49792 0 0 1 0.24023,2.39257 h 12.14258 c 0.16567,0 0.32359,-0.0335 0.4668,-0.0937 0.42961,-0.18111 0.72851,-0.60454 0.72851,-1.10156 v -14.86719 a 2.751234,2.751234 0 0 0 1.55664,-2.47851 2.751234,2.751234 0 0 0 -2.75195,-2.75 z m -12.10938,24.54101 c -0.0299,0 -0.0547,0.0155 -0.084,0.0176 a 24.49792,24.49792 0 0 1 -0.30078,2.29883 c 0.12193,0.0418 0.24828,0.0762 0.38476,0.0762 h 14.35547 v 13.66992 a 2.751234,2.751234 0 0 0 -1.55664,2.47852 2.751234,2.751234 0 0 0 2.75196,2.75 2.751234,2.751234 0 0 0 2.75195,-2.75 2.751234,2.751234 0 0 0 -1.55469,-2.47852 V 290.2793 c 0,-0.66269 -0.53458,-1.19532 -1.19726,-1.19532 z m -59.64648,2.24414 c -0.66269,0 -1.19726,0.53263 -1.19726,1.19532 v 14.86718 a 2.751234,2.751234 0 0 0 -1.55469,2.47852 2.751234,2.751234 0 0 0 2.75195,2.75195 2.751234,2.751234 0 0 0 2.75,-2.75195 2.751234,2.751234 0 0 0 -1.55469,-2.47656 V 293.7207 h 10.3711 a 24.49792,24.49792 0 0 1 -0.54493,-2.39258 z m 58.55274,2.99219 a 24.49792,24.49792 0 0 1 -0.87696,2.39258 h 11.08789 v 13.67188 a 2.751234,2.751234 0 0 0 -1.55469,2.47656 2.751234,2.751234 0 0 0 2.75196,2.75195 2.751234,2.751234 0 0 0 2.75,-2.75195 2.751234,2.751234 0 0 0 -1.55469,-2.47656 v -14.86719 c 0,-0.66269 -0.53262,-1.19727 -1.19531,-1.19727 z m -52.56836,2.39453 c -0.66269,0 -1.19532,0.53458 -1.19532,1.19727 v 14.86719 a 2.751234,2.751234 0 0 0 -1.55468,2.47656 2.751234,2.751234 0 0 0 2.75,2.75195 2.751234,2.751234 0 0 0 2.75195,-2.75195 2.751234,2.751234 0 0 0 -1.55469,-2.47656 v -13.67188 h 6.62305 a 24.49792,24.49792 0 0 1 -1.18164,-2.39258 z m 46.95117,7.21289 a 24.49792,24.49792 0 0 1 -2.39258,2.21289 v 0.19336 c -0.005,-0.0564 -0.0325,-0.10427 -0.0449,-0.1582 a 24.49792,24.49792 0 0 1 -2.01953,1.46094 h 0.89062 c 0.62442,0 1.11704,-0.47881 1.17383,-1.08789 v 10.12109 a 2.751234,2.751234 0 0 0 -1.55469,2.47656 2.751234,2.751234 0 0 0 2.75196,2.75196 2.751234,2.751234 0 0 0 2.75,-2.75196 2.751234,2.751234 0 0 0 -1.55469,-2.47656 z M 140.25,308.86914 v 9.44531 a 2.751234,2.751234 0 0 0 -1.55664,2.47852 2.751234,2.751234 0 0 0 2.75195,2.75 2.751234,2.751234 0 0 0 2.75196,-2.75 2.751234,2.751234 0 0 0 -1.55469,-2.47656 v -8.375 A 24.49792,24.49792 0 0 1 140.25,308.86914 Z m 19.56445,1.24219 a 24.49792,24.49792 0 0 1 -2.39257,0.73242 v 3.13281 a 2.751234,2.751234 0 0 0 -1.55469,2.47656 2.751234,2.751234 0 0 0 2.75195,2.75196 2.751234,2.751234 0 0 0 2.75,-2.75196 2.751234,2.751234 0 0 0 -1.55469,-2.47851 z m -10.88672,1.33984 v 9.85742 a 2.751234,2.751234 0 0 0 -1.55468,2.47657 2.751234,2.751234 0 0 0 2.75195,2.75195 2.751234,2.751234 0 0 0 2.75,-2.75195 2.751234,2.751234 0 0 0 -1.55469,-2.47657 v -9.72851 a 24.49792,24.49792 0 0 1 -2.39258,-0.12891 z"
         transform="scale(0.26458333)"
         inkscape:export-xdpi="164.03"
         inkscape:export-ydpi="164.03" />
      <path
         id="circle978"
         style="fill:none;fill-opacity:1;stroke:none;stroke-width:0.381023;stroke-opacity:1"
         d="m 46.545478,76.056252 a 6.4817414,6.4817414 0 0 1 -6.481741,6.481742 6.4817414,6.4817414 0 0 1 -6.481742,-6.481742 6.4817414,6.4817414 0 0 1 6.481742,-6.481741 6.4817414,6.4817414 0 0 1 6.481741,6.481741 z" />
      <g
         id="g1080"
         transform="translate(-13.815424,-20.563726)"
         style="fill:#0082ff;fill-opacity:1">
        <text
           xml:space="preserve"
           style="font-style:normal;font-variant:normal;font-weight:bold;font-stretch:normal;font-size:8.12055999999999933px;line-height:1.25;font-family:'Game Of Squids';-inkscape-font-specification:'Game Of Squids Bold';fill:#0082ff;stroke-width:0.203015;fill-opacity:1"
           x="47.600044"
           y="99.611443"
           id="text835"
           transform="scale(1.0077212,0.99233794)"><tspan
             sodipodi:role="line"
             id="tspan833"
             x="47.600044"
             y="99.611443"
             style="font-style:normal;font-variant:normal;font-weight:bold;font-stretch:normal;font-family:'Game Of Squids';-inkscape-font-specification:'Game Of Squids Bold';fill:#0082ff;stroke-width:0.203015;fill-opacity:1">A</tspan></text>
        <text
           xml:space="preserve"
           style="font-style:normal;font-variant:normal;font-weight:bold;font-stretch:normal;font-size:8.16522999999999932px;line-height:1.25;font-family:'Game Of Squids';-inkscape-font-specification:'Game Of Squids Bold';fill:#0082ff;stroke-width:0.20413;fill-opacity:1"
           x="53.539089"
           y="99.121475"
           id="text839"
           transform="scale(1.0022137,0.9977912)"><tspan
             sodipodi:role="line"
             id="tspan837"
             x="53.539089"
             y="99.121475"
             style="font-style:normal;font-variant:normal;font-weight:bold;font-stretch:normal;font-family:'Game Of Squids';-inkscape-font-specification:'Game Of Squids Bold';fill:#0082ff;stroke-width:0.20413;fill-opacity:1">L</tspan></text>
      </g>
    </g>
  </g>
</svg>
